# Blender 3.4.1
# www.blender.org
mtllib arrow.mtl
o Circle
v -0.020560 0.000000 -1.557949
v -0.886586 0.000000 -0.057949
v 0.845465 0.000000 -0.057949
v -0.020560 0.366719 -1.557949
v -0.886586 0.366719 -0.057949
v 0.845465 0.366719 -0.057949
v -0.267478 0.000000 -0.057949
v -0.267478 -0.000000 1.356264
v 0.226357 -0.000000 1.356264
v 0.226357 0.000000 -0.057949
v -0.267478 0.366719 -0.057949
v -0.267478 0.366719 1.356264
v 0.226357 0.366719 1.356264
v 0.226357 0.366719 -0.057949
v -0.020560 -0.005547 -1.566269
v -0.893792 -0.005547 -0.053789
v 0.852671 -0.005547 -0.053789
v -0.020560 0.372266 -1.566269
v -0.893792 0.372266 -0.053789
v 0.852671 0.372266 -0.053789
v -0.274549 -0.007071 -0.057949
v -0.273252 -0.005774 1.362038
v 0.232130 -0.005774 1.362038
v 0.233428 -0.007071 -0.057949
v -0.274549 0.373790 -0.057949
v -0.273252 0.372492 1.362038
v 0.232130 0.372492 1.362038
v 0.233428 0.373790 -0.057949
vn -0.0000 0.5547 0.8321
vn -0.7206 0.5547 -0.4160
vn -0.7206 -0.5547 -0.4160
vn -0.0000 -0.5547 0.8321
vn 0.7206 0.5547 -0.4160
vn 0.7206 -0.5547 -0.4160
vn -0.5774 0.5774 -0.5774
vn 0.5774 0.5774 -0.5774
vn 0.5774 -0.5774 -0.5774
vn -0.5774 -0.5774 -0.5774
vn -0.3015 0.3015 -0.9045
vn -0.3015 -0.3015 -0.9045
vn 0.3015 0.3015 -0.9045
vn 0.3015 -0.3015 -0.9045
vn -0.0000 -0.5547 -0.8321
vn -0.0000 0.5547 -0.8321
vn 0.7206 0.5547 0.4160
vn 0.7206 -0.5547 0.4160
vn -0.7206 0.5547 0.4160
vn -0.7206 -0.5547 0.4160
vn 0.5771 -0.5771 0.5778
vn 0.5771 0.5771 0.5778
vn -0.5771 0.5771 0.5778
vn -0.5771 -0.5771 0.5778
vn 0.5776 -0.5776 -0.5769
vn 0.5776 0.5776 -0.5769
vn -0.5776 0.5776 -0.5769
vn -0.5776 -0.5776 -0.5769
vt 0.000000 0.000000
vt 0.000000 0.000000
vt 0.000000 0.000000
vt 0.000000 0.000000
vt 0.000000 0.000000
vt 0.000000 0.000000
vt 0.000000 0.000000
vt 0.000000 0.000000
vt 0.000000 0.000000
vt 0.000000 0.000000
vt 0.000000 0.000000
vt 0.000000 0.000000
vt 0.000000 0.000000
vt 0.000000 0.000000
vt 0.000000 0.000000
vt 0.000000 0.000000
vt 0.000000 0.000000
vt 0.000000 0.000000
vt 0.000000 0.000000
vt 0.000000 0.000000
vt 0.000000 0.000000
vt 0.000000 0.000000
vt 0.000000 0.000000
vt 0.000000 0.000000
vt 0.000000 0.000000
vt 0.000000 0.000000
vt 0.000000 0.000000
vt 0.000000 0.000000
s 1
f 1/1/1 3/3/2 6/6/3 4/4/4
f 3/3/2 2/2/5 5/5/6 6/6/3
f 2/2/5 1/1/1 4/4/4 5/5/6
f 5/5/6 4/4/4 6/6/3
f 2/2/5 3/3/2 1/1/1
f 9/9/7 8/8/8 12/12/9 13/13/10
f 10/10/11 9/9/7 13/13/10 14/14/12
f 8/8/8 7/7/13 11/11/14 12/12/9
f 12/12/9 11/11/14 14/14/12 13/13/10
f 8/8/8 9/9/7 10/10/11 7/7/13
f 15/15/15 18/18/16 20/20/17 17/17/18
f 17/17/18 20/20/17 19/19/19 16/16/20
f 16/16/20 19/19/19 18/18/16 15/15/15
f 19/19/19 20/20/17 18/18/16
f 16/16/20 15/15/15 17/17/18
f 23/23/21 27/27/22 26/26/23 22/22/24
f 24/24/25 28/28/26 27/27/22 23/23/21
f 22/22/24 26/26/23 25/25/27 21/21/28
f 26/26/23 27/27/22 28/28/26 25/25/27
f 22/22/24 21/21/28 24/24/25 23/23/21
f 11/11/14 7/7/13 21/21/28 25/25/27
f 10/10/11 14/14/12 28/28/26 24/24/25
f 14/14/12 11/11/14 25/25/27 28/28/26
f 7/7/13 10/10/11 24/24/25 21/21/28
